<svg xmlns="http://www.w3.org/2000/svg" viewBox="0 0 512 512" role="img" aria-label="Archigram mark">
  <defs>
    <linearGradient id="archigram-mark-gradient" x1="84" y1="68" x2="420" y2="444" gradientUnits="userSpaceOnUse">
      <stop offset="0" stop-color="#a72bff"/>
      <stop offset=".52" stop-color="#7027f4"/>
      <stop offset="1" stop-color="#2024c8"/>
    </linearGradient>
  </defs>
  <rect width="512" height="512" rx="104" fill="url(#archigram-mark-gradient)"/>
  <g fill="none" stroke="#fff" stroke-width="22" stroke-linecap="round" stroke-linejoin="round">
    <path d="M148 180v117"/>
    <path d="M191 151h121"/>
    <path d="M254 180v39"/>
    <path d="M300 264h50c14 0 22 8 22 22v22"/>
    <path d="M257 309v20c0 21-13 34-34 34h-39"/>
    <path d="M256 219l45 45-45 45-45-45 45-45Z"/>
  </g>
  <g fill="#fff">
    <rect x="105" y="120" width="86" height="62" rx="13"/>
    <rect x="312" y="120" width="86" height="62" rx="13"/>
    <circle cx="148" cy="334" r="38"/>
    <rect x="318" y="306" width="78" height="78" rx="13"/>
  </g>
</svg>
