<svg xmlns="http://www.w3.org/2000/svg" viewBox="0 0 1024 256" role="img" aria-label="Archigram">
  <defs>
    <linearGradient id="archigram-icon-gradient" x1="18" y1="42" x2="236" y2="216" gradientUnits="userSpaceOnUse">
      <stop offset="0" stop-color="#a72bff"/>
      <stop offset=".52" stop-color="#7027f4"/>
      <stop offset="1" stop-color="#2024c8"/>
    </linearGradient>
  </defs>
  <g transform="translate(24 28)">
    <g fill="none" stroke="url(#archigram-icon-gradient)" stroke-width="18" stroke-linecap="round" stroke-linejoin="round">
      <path d="M48 43v86c0 24 15 39 39 39h30c16 0 26-10 26-26V91"/>
      <path d="M48 43h159"/>
      <path d="M149 91h49c14 0 22 8 22 22v55"/>
      <path d="M124 43v34"/>
      <path d="M178 112l-54-54-54 54 54 54 54-54Z"/>
    </g>
    <g fill="url(#archigram-icon-gradient)">
      <rect x="0" y="0" width="96" height="68" rx="13"/>
      <rect x="160" y="0" width="88" height="68" rx="13"/>
      <circle cx="48" cy="168" r="42"/>
      <rect x="160" y="132" width="88" height="88" rx="13"/>
    </g>
  </g>
  <text x="334" y="166" fill="#100331" font-family="Inter, ui-sans-serif, system-ui, -apple-system, BlinkMacSystemFont, 'Segoe UI', sans-serif" font-size="118" font-weight="800" letter-spacing="-2">Archigram</text>
</svg>
